<?xml version="1.0" encoding="UTF-8"?>
<svg version="1.1" xmlns="http://www.w3.org/2000/svg" width="1504" height="1128">
<path d="M0 0 C496.32 0 992.64 0 1504 0 C1504 372.24 1504 744.48 1504 1128 C1007.68 1128 511.36 1128 0 1128 C0 755.76 0 383.52 0 0 Z " fill="#F9F9F9" transform="translate(0,0)"/>
<path d="M0 0 C1.07765625 0.33902344 2.1553125 0.67804688 3.265625 1.02734375 C19.14426926 6.5222933 33.45989802 16.41856239 47.70727539 25.12597656 C56.76168753 30.65810625 65.86743869 36.09798644 75 41.5 C85.61174381 47.77970932 96.18100272 54.12293137 106.70898438 60.54199219 C116.77021148 66.67394873 126.89115955 72.70097987 137.03094482 78.70196533 C146.59935738 84.36642173 156.12979168 90.08870067 165.625 95.875 C174.65858759 101.37957978 183.72440421 106.82216485 192.84179688 112.18676758 C202.95368063 118.13946217 213.00727576 124.18873559 223.06347656 130.23486328 C227.37403863 132.8259311 231.68700263 135.4129887 236 138 C237.62110822 138.97263214 239.24220176 139.94528874 240.86328125 140.91796875 C241.68908691 141.41345215 242.51489258 141.90893555 243.36572266 142.41943359 C251.91796875 147.55078125 251.91796875 147.55078125 255.02172852 149.41308594 C257.14325318 150.68596801 259.26483581 151.95875349 261.38647461 153.23144531 C266.60014302 156.35909209 271.81294454 159.48815932 277.0234375 162.62109375 C285.90421238 167.95864571 294.78914221 173.28839878 303.703125 178.5703125 C304.36392563 178.96186523 305.02472626 179.35341797 305.70555115 179.75683594 C307.05831963 180.55832519 308.41109782 181.35979804 309.7638855 182.16125488 C321.11882041 188.88872693 332.43782012 195.66882683 343.70614624 202.54043579 C352.46000949 207.87696124 361.25774585 213.13486781 370.08203125 218.35406494 C380.51490645 224.52520787 390.92789401 230.7257613 401.26263428 237.06027222 C402.96822858 238.10552919 404.67574745 239.14764368 406.38330078 240.18969727 C407.39118652 240.81030029 408.39907227 241.43090332 409.4375 242.0703125 C410.32308594 242.61445801 411.20867188 243.15860352 412.12109375 243.71923828 C412.74113281 244.14188965 413.36117187 244.56454102 414 245 C414 245.33 414 245.66 414 246 C385.11743415 246.43569745 356.23519485 246.77083097 327.34998611 246.97024126 C323.92130697 246.99399787 320.49263432 247.01859065 317.06396484 247.04370117 C316.38152677 247.04868507 315.69908869 247.05366897 314.99597067 247.05880389 C304.02023464 247.14094359 293.046436 247.29043681 282.07184023 247.46590313 C270.76707409 247.64510822 259.46372231 247.74801251 248.15744448 247.7876814 C241.82424685 247.81222306 235.49540516 247.86889062 229.16362 248.00887108 C199.7889119 248.6332396 177.76465366 247.68356228 154.00413513 229.27152443 C149.64141838 225.97273218 144.99013723 223.27456953 140.25 220.5625 C138.6801327 219.62339134 137.11210617 218.68119061 135.546875 217.734375 C132.47626943 215.88674023 129.40330817 214.04313086 126.328125 212.203125 C117.08040075 206.6676813 107.85663375 201.09412419 98.64901733 195.49227905 C89.04641998 189.65036257 79.4228678 183.85196672 69.71875 178.1796875 C64.14289624 174.919378 58.61330144 171.58211152 53.07958984 168.25097656 C49.05533865 165.83018963 45.02730593 163.41570019 41 161 C39.28774615 159.97268002 37.57550637 158.9453366 35.86328125 157.91796875 C35.03908691 157.42345215 34.21489258 156.92893555 33.36572266 156.41943359 C14.2438151 144.94628906 -4.87809245 133.47314453 -24 122 C-25.83458249 124.75187374 -26.72546477 126.81021811 -27.75233459 129.90969849 C-28.09020493 130.92207581 -28.42807526 131.93445313 -28.77618408 132.97750854 C-29.14145203 134.0872403 -29.50671997 135.19697205 -29.88305664 136.34033203 C-30.27188522 137.50959229 -30.66071381 138.67885254 -31.06132507 139.88354492 C-31.90581709 142.42509647 -32.748653 144.96712853 -33.58873177 147.51013565 C-34.91609434 151.527996 -36.24998661 155.54366926 -37.58482361 159.55905151 C-40.17512623 167.35408843 -42.75864543 175.15136524 -45.34156036 182.94885254 C-48.63229786 192.88190337 -51.92641108 202.81383182 -55.22593397 212.74396789 C-56.55325585 216.73935555 -57.87742059 220.73577178 -59.1991483 224.73301339 C-60.21258093 227.79559027 -61.22978645 230.85691422 -62.24633789 233.91845703 C-62.61363007 235.03223724 -62.98092224 236.14601746 -63.35934448 237.29354858 C-63.69439499 238.30028625 -64.0294455 239.30702393 -64.37464905 240.3442688 C-64.66610337 241.22437181 -64.9575577 242.10447483 -65.25784397 243.01124763 C-66 245 -66 245 -67 246 C-68.6195634 246.09603022 -70.24333083 246.12187855 -71.86573792 246.12025452 C-72.91888184 246.12162918 -73.97202576 246.12300385 -75.05708313 246.12442017 C-76.80495369 246.11902725 -76.80495369 246.11902725 -78.58813477 246.11352539 C-80.41714828 246.11374443 -80.41714828 246.11374443 -82.28311157 246.1139679 C-85.63627511 246.11338893 -88.98937774 246.10835968 -92.34253049 246.10139394 C-95.84325562 246.09515983 -99.34398148 246.09455656 -102.8447113 246.09336853 C-109.47809656 246.09025538 -116.11146541 246.08204222 -122.74484342 246.07201904 C-130.29490207 246.06085739 -137.84496149 246.05534732 -145.39502633 246.05032361 C-160.93002706 246.03985959 -176.46501142 246.02226047 -192 246 C-189.60616457 236.62929826 -186.60110971 227.48006819 -183.55395508 218.30786133 C-183.00470762 216.64756286 -182.45568226 214.9871909 -181.90686035 213.32675171 C-180.11533966 207.91043019 -178.31759484 202.49618348 -176.51953125 197.08203125 C-175.89715013 195.2067813 -175.2748073 193.33151865 -174.65250206 191.45624352 C-171.72747769 182.64314098 -168.79958941 173.83099637 -165.86816865 165.02001935 C-162.50026551 154.89678052 -159.14231917 144.7703104 -155.79281884 134.64096814 C-153.19225174 126.77869924 -150.58233925 118.91957042 -147.9655754 111.06267756 C-146.40791843 106.38503473 -144.85415019 101.70618968 -143.31031227 97.02396584 C-141.85580276 92.61343278 -140.38959246 88.20695451 -138.91486359 83.80314255 C-138.38025806 82.20030613 -137.84964095 80.59613204 -137.32366753 78.99044228 C-127.45709205 48.90002536 -111.08034892 23.81613925 -83 8 C-81.56527344 7.18015625 -81.56527344 7.18015625 -80.1015625 6.34375 C-56.83716114 -6.14891484 -25.02208654 -8.57657491 0 0 Z " fill="#000000" transform="translate(641,506)"/>
<path d="M0 0 C46.58458711 -0.05137875 93.16917657 -0.09913752 139.75378418 -0.12702942 C140.78874251 -0.12765068 140.78874251 -0.12765068 141.84460909 -0.12828448 C156.84122219 -0.13726417 171.83783559 -0.14557458 186.83444944 -0.15319599 C194.18927495 -0.15693785 201.54410039 -0.16082753 208.89892578 -0.16479492 C209.99673921 -0.16538334 209.99673921 -0.16538334 211.11673068 -0.16598364 C234.81929415 -0.17875719 258.5218361 -0.20128327 282.22438654 -0.22889166 C306.59118474 -0.25722207 330.95797105 -0.27566389 355.32478545 -0.28174497 C358.77005658 -0.28260938 362.21532767 -0.28358629 365.66059875 -0.28463173 C366.67767093 -0.28493513 366.67767093 -0.28493513 367.71529002 -0.28524467 C378.60979173 -0.28878348 389.50425653 -0.30268049 400.39874321 -0.3204961 C411.36361613 -0.33820412 422.32845801 -0.34465031 433.29334545 -0.34050413 C439.22940106 -0.33858532 445.16534876 -0.34149819 451.10138512 -0.35761642 C456.54375645 -0.37228578 461.985948 -0.37290687 467.42832786 -0.36269668 C469.38957223 -0.36143599 471.35082812 -0.36518157 473.31205004 -0.37464955 C500.92198448 -0.50010912 526.89756089 6.41566707 548 25 C548.81855469 25.67546875 549.63710938 26.3509375 550.48046875 27.046875 C567.06003835 41.13308297 577.30314159 60.2497265 583 81 C583.19215088 81.66273926 583.38430176 82.32547852 583.58227539 83.00830078 C589.07751988 104.16363247 584.94660935 126.8709091 578 147 C577.08563613 149.75864938 576.18613871 152.52211231 575.28515625 155.28515625 C573.02470046 162.18717222 570.71360223 169.07112037 568.38267517 175.94961548 C566.55212809 181.35501486 564.74156141 186.76670434 562.9453125 192.18359375 C562.69232895 192.94589798 562.4393454 193.70820221 562.17869568 194.49360657 C561.20926538 197.41506006 560.23986476 200.33652173 559.27261353 203.25869751 C553.98555358 219.22041734 548.46664098 235.09704443 543 251 C501.75 251 460.5 251 418 251 C418.66108552 246.37240137 419.19795313 242.90669646 420.62535095 238.63619995 C420.96040146 237.62410461 421.29545197 236.61200928 421.64065552 235.56924438 C422.00794769 234.48017792 422.37523987 233.39111145 422.75366211 232.26904297 C423.14073837 231.10562378 423.52781464 229.94220459 423.92662048 228.74353027 C424.98427432 225.56865937 426.04722135 222.39565804 427.1126945 219.22340918 C428.22897612 215.89593782 429.33864495 212.56626225 430.44911194 209.23684692 C432.31390265 203.64891177 434.18311806 198.06247348 436.05541992 192.47705078 C438.45614176 185.31520158 440.84997802 178.15107148 443.24149227 170.98614311 C445.30147027 164.81452094 447.36412262 158.64379323 449.42745519 152.47329187 C449.86938772 151.15153826 450.31122919 149.82975418 450.75297999 148.50793982 C452.20541933 144.16193859 453.66051649 139.81683499 455.11694336 135.47216797 C455.4822113 134.37905304 455.84747925 133.28593811 456.22381592 132.15969849 C456.56168625 131.1532428 456.89955658 130.14678711 457.24766541 129.10983276 C457.53949676 128.23861219 457.83132811 127.36739162 458.13200283 126.46977043 C459.01815811 123.94833352 459.98971361 121.47402363 461 119 C460.45353506 119.00721469 459.90707012 119.01442937 459.34404564 119.02186269 C426.80915812 119.44893298 394.27502439 119.77398316 361.73797119 119.97024126 C357.81359068 119.99399892 353.88921583 120.01859161 349.96484375 120.04370117 C349.18371538 120.04868507 348.40258702 120.05366897 347.5977881 120.05880389 C335.02172028 120.14102601 322.44733696 120.29056979 309.87226176 120.46590313 C296.92679065 120.64486797 283.98218897 120.7493826 271.035532 120.7876814 C263.78045782 120.81120291 256.52889779 120.86728403 249.27508545 121.00887108 C192.49950039 122.08455227 192.49950039 122.08455227 168.14752197 102.4364109 C162.75357551 98.26110408 156.87827806 94.94635418 151 91.5 C148.70314714 90.11249652 146.41407891 88.7128344 144.125 87.3125 C136.4526645 82.64772001 128.72704238 78.07337389 121 73.5 C110.38869902 67.21953143 99.81900773 60.877075 89.29101562 54.45800781 C79.2314615 48.32707089 69.11228101 42.30089153 58.97409058 36.30105591 C48.1307945 29.8821301 37.34243503 23.37801592 26.58496094 16.81640625 C19.311212 12.38466193 12.0064932 8.01428442 4.61743164 3.77709961 C3.06284989 2.87756656 1.52844116 1.94326654 0 1 C0 0.67 0 0.34 0 0 Z " fill="#000000" transform="translate(449,376)"/>
<path d="M0 0 C0.66 0 1.32 0 2 0 C2.6875 1.8125 2.6875 1.8125 3 4 C1.5625 5.75 1.5625 5.75 0 7 C-0.66 6.67 -1.32 6.34 -2 6 C-1.34 4.02 -0.68 2.04 0 0 Z " fill="#F0EFF0" transform="translate(1025,526)"/>
</svg>
